<svg width="450" height="133" viewBox="0 0 450 133" fill="none" xmlns="http://www.w3.org/2000/svg">
<g filter="url(#filter0_i_104_48)">
<path fill-rule="evenodd" clip-rule="evenodd" d="M-21 88.6667L-7.47 81.2778C6.47 73.8889 33.53 59.1111 61 56.6481C88.47 54.1852 115.53 64.037 143 73.8889C170.47 83.7407 197.53 93.5926 225 100.981C252.47 108.37 279.53 113.296 307 98.5185C334.47 83.7407 361.53 49.2593 389 29.5556C416.47 9.85185 443.53 4.92593 457.47 2.46296L471 0V133H457.47C443.53 133 416.47 133 389 133C361.53 133 334.47 133 307 133C279.53 133 252.47 133 225 133C197.53 133 170.47 133 143 133C115.53 133 88.47 133 61 133C33.53 133 6.47 133 -7.47 133H-21V88.6667Z" fill="#0066FF"/>
</g>
<defs>
<filter id="filter0_i_104_48" x="-21" y="0" width="492" height="138" filterUnits="userSpaceOnUse" color-interpolation-filters="sRGB">
<feFlood flood-opacity="0" result="BackgroundImageFix"/>
<feBlend mode="normal" in="SourceGraphic" in2="BackgroundImageFix" result="shape"/>
<feColorMatrix in="SourceAlpha" type="matrix" values="0 0 0 0 0 0 0 0 0 0 0 0 0 0 0 0 0 0 127 0" result="hardAlpha"/>
<feOffset dy="5"/>
<feGaussianBlur stdDeviation="10"/>
<feComposite in2="hardAlpha" operator="arithmetic" k2="-1" k3="1"/>
<feColorMatrix type="matrix" values="0 0 0 0 0 0 0 0 0 0.156667 0 0 0 0 0.391667 0 0 0 0.25 0"/>
<feBlend mode="normal" in2="shape" result="effect1_innerShadow_104_48"/>
</filter>
</defs>
</svg>
